<?xml version="1.0" encoding="UTF-8"?> <svg xmlns="http://www.w3.org/2000/svg" id="Layer_1" data-name="Layer 1" viewBox="0 0 239.59 65.77"><defs><style>.cls-1{fill:#fff;}</style></defs><path class="cls-1" d="M82,28.11h8.37V24.28H82V21H96.3V17.14H77V36H96.48V32H82Z" transform="translate(-0.55 -0.62)"></path><path class="cls-1" d="M236.78,20.41l-7.19,9.06-7.18-9.06H219V36h4.33v-9l5.69,7.17h1.07l5.69-7.17v9h4.32V20.41Z" transform="translate(-0.55 -0.62)"></path><path class="cls-1" d="M198.8,30.82V20.41h-4.32V36h3.38l12.33-10.41V36h4.33V20.41h-3.39Z" transform="translate(-0.55 -0.62)"></path><path class="cls-1" d="M189.47,17.14H183.6l-5.37,6-5.63-6H166l9.13,9.21L166.15,36h6l6-6.86L184.59,36h6.78L181.22,25.84Z" transform="translate(-0.55 -0.62)"></path><path class="cls-1" d="M116.67,28a3.24,3.24,0,0,0,.83-.55,2.57,2.57,0,0,0,.83-2V23.67a3.11,3.11,0,0,0-.9-2.42,4.47,4.47,0,0,0-3-.84H100.71V36h13a6.23,6.23,0,0,0,3.37-.77,2.78,2.78,0,0,0,1.36-2.52v-1.9a3.15,3.15,0,0,0-.88-2.23A3.71,3.71,0,0,0,116.67,28ZM105,23.61h7.72c.87,0,1,.14,1,.14a.75.75,0,0,1,.21.55v1.41c0,.28,0,.39-.15.49a1.94,1.94,0,0,1-1.09.19H105Zm9.07,8.07a1,1,0,0,1-.23.75,1.58,1.58,0,0,1-1,.22H105V29.59h7.75c.74,0,1,.13,1.09.23a1,1,0,0,1,.23.74Z" transform="translate(-0.55 -0.62)"></path><path class="cls-1" d="M136.08,20.41H122.32V36h4.32V30.26h9.44a4.5,4.5,0,0,0,2.87-.75,3,3,0,0,0,1-2.5V23.67C139.93,22.15,139.5,20.41,136.08,20.41Zm-.26,5.65c0,.36,0,.49-.21.62a1.47,1.47,0,0,1-.86.2h-8.11V23.79h7.89a1.76,1.76,0,0,1,1.09.22.73.73,0,0,1,.2.61Z" transform="translate(-0.55 -0.62)"></path><path class="cls-1" d="M162.61,21.29c-.92-.88-2.64-.88-3.38-.88H147.59a4.56,4.56,0,0,0-3.17.81,4.22,4.22,0,0,0-.93,3.08v7.84a4.41,4.41,0,0,0,.85,3c.59.6,1.7.89,3.39.89h11.5c1.21,0,2.58-.07,3.39-.93a4.13,4.13,0,0,0,.84-2.78v-8A4.25,4.25,0,0,0,162.61,21.29Zm-3.47,11.19H147.82V24h11.32Z" transform="translate(-0.55 -0.62)"></path><path class="cls-1" d="M10.47,26.59l21.22,26V33.46a7,7,0,0,1,.68-13.85,7,7,0,0,1,6.33,7H52.91L31.7.63v19a7,7,0,0,0-7,7Z" transform="translate(-0.55 -0.62)"></path><polygon class="cls-1" points="38.72 0 38.49 0.28 59.7 25.97 52.36 25.97 34.82 47.44 38.49 51.93 62.29 25.97 38.72 0"></polygon><polygon class="cls-1" points="27.47 4.5 23.8 0 0 25.97 23.61 51.93 23.81 51.68 2.58 25.97 9.92 25.97 27.47 4.5"></polygon><path class="cls-1" d="M83.76,48.16l-2.48,6.09H80.8l-2.49-6.09v6.09H77.16V46.58h1.65L81,52.09l2.23-5.51h1.64v7.67H83.76Z" transform="translate(-0.55 -0.62)"></path><path class="cls-1" d="M88,46.58V52.5l4.17-5.92h1.19v7.67H92.16v-6l-4.25,6H86.8V46.58Z" transform="translate(-0.55 -0.62)"></path><path class="cls-1" d="M100.58,50.82H96.33v3.43H95.18V46.58h1.15V49.8h4.25V46.58h1.15v7.67h-1.15Z" transform="translate(-0.55 -0.62)"></path><path class="cls-1" d="M103.61,46.58h5.15v1h-4v2.25h3.92v1h-3.92v2.39h4v1h-5.15Z" transform="translate(-0.55 -0.62)"></path><path class="cls-1" d="M110.33,46.58h3.24a2.36,2.36,0,1,1,0,4.72h-2.09v3h-1.15Zm3.09,1h-1.94v2.69h1.94a1.35,1.35,0,1,0,0-2.69Z" transform="translate(-0.55 -0.62)"></path><path class="cls-1" d="M121.67,52.67h-3.76l-.62,1.58H116l3-7.67h1.44l3,7.67h-1.27Zm-3.43-1h3.1l-1.56-4.06Z" transform="translate(-0.55 -0.62)"></path><path class="cls-1" d="M126.38,48.9l.2-2.32h5v7.67h-1.16V47.59h-2.81l-.12,1.34c-.42,4.94-1.54,5.46-3,5.46V53.26C125.36,53.26,126.06,52.68,126.38,48.9Z" transform="translate(-0.55 -0.62)"></path><path class="cls-1" d="M134.56,49.54h2.08a2.36,2.36,0,1,1,0,4.71h-3.23V46.58h1.15Zm0,3.7h1.93a1.35,1.35,0,1,0,0-2.69h-1.93Z" transform="translate(-0.55 -0.62)"></path><path class="cls-1" d="M145.8,50.82h-4.24v3.43h-1.15V46.58h1.15V49.8h4.24V46.58H147v7.67H145.8Z" transform="translate(-0.55 -0.62)"></path><path class="cls-1" d="M152.31,46.45a4,4,0,1,1-3.87,4A3.77,3.77,0,0,1,152.31,46.45Zm0,1a2.68,2.68,0,0,0-2.68,2.94,2.69,2.69,0,1,0,2.68-2.94Z" transform="translate(-0.55 -0.62)"></path><path class="cls-1" d="M157.51,49.88h2.76v.9h-2.76Z" transform="translate(-0.55 -0.62)"></path><path class="cls-1" d="M163.81,51.12l-2.3,3.13h-1.4l2.95-3.93-2.77-3.74h1.39l2.13,2.94,2.11-2.94h1.4l-2.75,3.73,2.92,3.94h-1.38Z" transform="translate(-0.55 -0.62)"></path><path class="cls-1" d="M169.83,46.58V52.5L174,46.58h1.18v7.67H174v-6l-4.24,6h-1.12V46.58Z" transform="translate(-0.55 -0.62)"></path><path class="cls-1" d="M183.67,48.16l-2.48,6.09h-.48l-2.49-6.09v6.09h-1.15V46.58h1.64L181,52.09l2.23-5.51h1.64v7.67h-1.15Z" transform="translate(-0.55 -0.62)"></path><path class="cls-1" d="M187.86,46.58V52.5L192,46.58h1.19v7.67h-1.15v-6l-4.25,6h-1.11V46.58Z" transform="translate(-0.55 -0.62)"></path><path class="cls-1" d="M197.47,50.42a4.5,4.5,0,0,0,1.74-.32V46.58h1.15v7.67h-1.15V51a5.77,5.77,0,0,1-2.09.41c-1.68,0-2.41-.77-2.41-2.7V46.58h1.15v2.15C195.86,50,196.3,50.42,197.47,50.42Z" transform="translate(-0.55 -0.62)"></path><path class="cls-1" d="M202.23,46.58h5.16v1h-4v2.25h3.93v1h-3.93v2.39h4v1h-5.16Z" transform="translate(-0.55 -0.62)"></path><path class="cls-1" d="M208.62,50.42a3.84,3.84,0,0,1,3.93-4,3.47,3.47,0,0,1,3,1.62l-1,.52a2.46,2.46,0,0,0-2.08-1.11,3,3,0,0,0,0,5.89,2.45,2.45,0,0,0,2.08-1.12l1,.52a3.48,3.48,0,0,1-3,1.62A3.84,3.84,0,0,1,208.62,50.42Z" transform="translate(-0.55 -0.62)"></path><path class="cls-1" d="M218.78,50.92l-.73.81v2.52H216.9V46.58h1.15v3.81l3.21-3.81h1.43l-3.17,3.64,3.42,4h-1.43Z" transform="translate(-0.55 -0.62)"></path><path class="cls-1" d="M229.41,52.67h-3.77L225,54.25h-1.26l3-7.67h1.44l3,7.67H230Zm-3.43-1h3.09l-1.55-4.06Z" transform="translate(-0.55 -0.62)"></path><path class="cls-1" d="M234.27,51.18a2.13,2.13,0,0,1-1.9-2.24,2.28,2.28,0,0,1,2.45-2.36h3.23v7.67H236.9v-3h-1.44l-1.83,3H232.3Zm2.63-3.59H235a1.35,1.35,0,1,0,0,2.69h1.93Z" transform="translate(-0.55 -0.62)"></path><path class="cls-1" d="M79,62.92l-.73.81v2.52H77.16V58.58h1.15v3.81l3.21-3.81H83l-3.17,3.64,3.42,4H81.77Z" transform="translate(-0.55 -0.62)"></path><path class="cls-1" d="M87.32,58.45a4,4,0,1,1-3.87,4A3.77,3.77,0,0,1,87.32,58.45Zm0,1a3,3,0,0,0,0,5.89,3,3,0,0,0,0-5.89Z" transform="translate(-0.55 -0.62)"></path><path class="cls-1" d="M99.28,60.16,96.8,66.25h-.48l-2.49-6.09v6.09H92.68V58.58h1.65l2.23,5.51,2.23-5.51h1.65v7.67H99.28Z" transform="translate(-0.55 -0.62)"></path><path class="cls-1" d="M107.71,59.59h-4.25v6.66h-1.15V58.58h6.55v7.67h-1.15Z" transform="translate(-0.55 -0.62)"></path><path class="cls-1" d="M115.68,64.67h-3.76l-.62,1.58H110l3-7.67h1.44l3,7.67h-1.26Zm-3.42-1h3.09l-1.55-4.06Z" transform="translate(-0.55 -0.62)"></path><path class="cls-1" d="M124.15,62.82H119.9v3.43h-1.15V58.58h1.15V61.8h4.25V58.58h1.15v7.67h-1.15Z" transform="translate(-0.55 -0.62)"></path><path class="cls-1" d="M128.33,58.58V64.5l4.17-5.92h1.19v7.67h-1.15v-6l-4.25,6h-1.11V58.58Z" transform="translate(-0.55 -0.62)"></path><path class="cls-1" d="M137.13,63.18a2.13,2.13,0,0,1-1.9-2.24,2.28,2.28,0,0,1,2.45-2.36h3.23v7.67h-1.15v-3h-1.44l-1.82,3h-1.34Zm2.63-3.59h-1.93a1.35,1.35,0,1,0,0,2.69h1.93Z" transform="translate(-0.55 -0.62)"></path></svg> 