<?xml version="1.0" encoding="UTF-8" standalone="no"?>
<svg
   xmlns:dc="http://purl.org/dc/elements/1.1/"
   xmlns:cc="http://creativecommons.org/ns#"
   xmlns:rdf="http://www.w3.org/1999/02/22-rdf-syntax-ns#"
   xmlns:svg="http://www.w3.org/2000/svg"
   xmlns="http://www.w3.org/2000/svg"
   viewBox="0 0 334.42667 139.84"
   height="139.84"
   width="334.42667"
   xml:space="preserve"
   id="svg2"
   version="1.1"><metadata
     id="metadata8"><rdf:RDF><cc:Work
         rdf:about=""><dc:format>image/svg+xml</dc:format><dc:type
           rdf:resource="http://purl.org/dc/dcmitype/StillImage" /></cc:Work></rdf:RDF></metadata><defs
     id="defs6" /><g
     transform="matrix(1.3333333,0,0,-1.3333333,0,139.84)"
     id="g10"><g
       transform="scale(0.1)"
       id="g12"><path
         id="path14"
         style="fill:#ffffff;fill-opacity:1;fill-rule:nonzero;stroke:none"
         d="M 2508.16,0 H 0 V 1048.82 H 2508.16 V 0" /><path
         id="path16"
         style="fill:#1476c6;fill-opacity:1;fill-rule:nonzero;stroke:none"
         d="M 911.578,666.457 H 1067.21 V 621.574 H 993.184 V 258.406 h -81.606 v 408.051" /><path
         id="path18"
         style="fill:#1476c6;fill-opacity:1;fill-rule:nonzero;stroke:none"
         d="m 1186.13,401.23 v -84.523 c 0,-5.445 1.55,-9.035 4.66,-10.793 3.11,-1.746 5.83,-2.629 8.17,-2.629 3.87,0 6.98,1.375 9.32,4.086 2.34,2.723 3.49,5.828 3.49,9.336 v 129.402 h -65.86 v 44.879 h 65.86 v 117.18 c 0,3.492 -1.15,6.602 -3.49,9.324 -2.34,2.707 -5.45,4.082 -9.32,4.082 -2.34,0 -5.06,-0.879 -8.17,-2.625 -3.11,-1.746 -4.66,-5.351 -4.66,-10.781 v -72.285 h -81.61 v 57.711 c 0,7 0.48,14.754 1.46,23.32 0.96,8.539 3.49,16.512 7.58,23.899 4.08,7.367 10.1,13.488 18.06,18.355 7.96,4.852 19.14,7.289 33.53,7.289 h 67.62 c 14.37,0 25.55,-2.437 33.51,-7.289 7.96,-4.867 14,-10.988 18.08,-18.355 4.07,-7.387 6.6,-15.36 7.56,-23.899 0.98,-8.566 1.46,-16.32 1.46,-23.32 V 331.281 c 0,-7 -0.48,-14.781 -1.46,-23.32 -0.96,-8.551 -3.49,-16.527 -7.56,-23.898 -4.08,-7.395 -10.12,-13.516 -18.08,-18.372 -7.96,-4.851 -19.14,-7.285 -33.51,-7.285 h -67.62 c -14.39,0 -25.57,2.434 -33.53,7.285 -7.96,4.856 -13.98,10.977 -18.06,18.372 -4.09,7.371 -6.62,15.347 -7.58,23.898 -0.98,8.539 -1.46,16.32 -1.46,23.32 v 69.949 h 81.61" /><path
         id="path20"
         style="fill:#1476c6;fill-opacity:1;fill-rule:nonzero;stroke:none"
         d="m 1372.66,466.516 -39.65,199.941 h 82.78 l 18.08,-142.824 h 2.92 l 18.06,142.824 h 82.78 l -39.64,-199.941 41.96,-208.11 h -83.35 l -19.81,146.895 h -2.92 l -19.83,-146.895 h -83.35 l 41.97,208.11" /><path
         id="path22"
         style="fill:#1476c6;fill-opacity:1;fill-rule:nonzero;stroke:none"
         d="m 1751.55,621.574 h -48.97 v 44.879 h 179.54 v -44.879 h -48.96 V 258.406 h -81.61 v 363.168" /><path
         id="path24"
         style="fill:#1476c6;fill-opacity:1;fill-rule:nonzero;stroke:none"
         d="m 2001.03,401.23 v -84.523 c 0,-5.445 1.56,-9.035 4.66,-10.793 3.11,-1.746 5.83,-2.629 8.17,-2.629 3.88,0 6.99,1.375 9.32,4.086 2.34,2.723 3.5,5.828 3.5,9.336 v 129.402 h -65.87 v 44.879 h 65.87 v 117.18 c 0,3.492 -1.16,6.602 -3.5,9.324 -2.33,2.707 -5.44,4.082 -9.32,4.082 -2.34,0 -5.06,-0.879 -8.17,-2.625 -3.1,-1.746 -4.66,-5.351 -4.66,-10.781 v -72.285 h -81.6 v 57.711 c 0,7 0.48,14.754 1.45,23.32 0.97,8.539 3.5,16.512 7.58,23.899 4.08,7.367 10.11,13.488 18.07,18.355 7.96,4.852 19.14,7.289 33.52,7.289 h 67.62 c 14.37,0 25.55,-2.437 33.51,-7.289 7.96,-4.867 14,-10.988 18.08,-18.355 4.07,-7.387 6.6,-15.36 7.57,-23.899 0.97,-8.566 1.45,-16.32 1.45,-23.32 V 331.281 c 0,-7 -0.48,-14.781 -1.45,-23.32 -0.97,-8.551 -3.5,-16.527 -7.57,-23.898 -4.08,-7.395 -10.12,-13.516 -18.08,-18.372 -7.96,-4.851 -19.14,-7.285 -33.51,-7.285 h -67.62 c -14.38,0 -25.56,2.434 -33.52,7.285 -7.96,4.856 -13.99,10.977 -18.07,18.372 -4.08,7.371 -6.61,15.347 -7.58,23.898 -0.97,8.539 -1.45,16.32 -1.45,23.32 v 69.949 h 81.6" /><path
         id="path26"
         style="fill:#1476c6;fill-opacity:1;fill-rule:nonzero;stroke:none"
         d="m 2248.19,442.027 c 4.27,0 7.86,1.75 10.78,5.254 2.91,3.492 4.37,8.539 4.37,15.153 v 138.738 c 0,6.601 -1.46,11.648 -4.37,15.152 -2.92,3.492 -6.51,5.254 -10.78,5.254 h -10.5 V 442.027 Z m -92.1,224.434 h 128.23 c 14.38,0 25.55,-2.438 33.52,-7.289 7.97,-4.867 13.99,-10.988 18.07,-18.356 4.09,-7.398 6.6,-15.359 7.58,-23.914 0.96,-8.55 1.46,-16.32 1.46,-23.32 v -123.57 c 0,-7 -0.5,-14.782 -1.46,-23.321 -0.98,-8.554 -3.49,-16.515 -7.58,-23.898 -4.08,-7.383 -10.1,-13.504 -18.07,-18.355 -7.97,-4.868 -19.14,-7.29 -33.52,-7.29 h -46.63 V 258.41 h -81.6 v 408.051" /><path
         id="path28"
         style="fill:#1476c6;fill-opacity:1;fill-rule:nonzero;stroke:none"
         d="m 468.289,803.445 c -17.023,-33.66 -26.027,-74.015 -26.027,-116.695 0,-42.684 9.004,-83.023 26.027,-116.684 l 4.867,-9.625 4.883,9.625 c 17.024,33.661 26.027,74 26.027,116.684 0,42.691 -9.003,83.051 -26.027,116.695 l -4.883,9.625 z m 4.867,-312.441 c -10.945,12.141 -42.199,49.539 -56.101,94.848 -0.11,0.523 -0.176,0.824 -0.274,1.179 -10.574,31.723 -15.894,65.203 -15.894,99.719 0,34.195 5.265,67.473 15.676,98.918 0.191,0.66 0.273,1.043 0.355,1.414 0.043,0.18 0.07,0.359 0.137,0.578 13.902,45.309 45.156,82.707 56.101,94.848 10.946,-12.141 42.199,-49.539 56.102,-94.832 0.066,-0.219 0.094,-0.387 0.137,-0.551 0.07,-0.359 0.152,-0.715 0.273,-1.141 10.492,-31.679 15.773,-64.984 15.773,-99.234 0,-34.516 -5.32,-67.996 -15.828,-99.512 -0.164,-0.562 -0.23,-0.863 -0.3,-1.168 -13.946,-45.484 -45.2,-82.914 -56.157,-95.066" /><path
         id="path30"
         style="fill:#1476c6;fill-opacity:1;fill-rule:nonzero;stroke:none"
         d="m 288.809,662.512 c -50.145,-49.391 -77.786,-115.543 -77.786,-186.258 0,-144.543 117.606,-262.133 262.133,-262.133 144.543,0 262.133,117.59 262.133,262.133 0,70.715 -27.621,136.867 -77.781,186.258 l -16.903,16.636 V 456.426 L 473.156,359.75 305.711,456.426 V 679.148 Z M 473.156,166.313 c -170.898,0 -309.941,139.027 -309.941,309.941 0,107.168 54.371,205.332 145.422,262.57 11.414,7.207 23.543,13.739 36.027,19.446 l 8.867,4.07 V 484.023 l 119.625,-69.082 119.657,69.082 V 762.34 l 8.867,-4.07 c 12.363,-5.653 24.476,-12.184 36,-19.446 91.066,-57.254 145.422,-155.418 145.422,-262.57 0,-170.914 -139.043,-309.941 -309.946,-309.941" /></g></g></svg>