<?xml version="1.0" encoding="utf-8"?>
<!-- Generator: Adobe Illustrator 27.4.1, SVG Export Plug-In . SVG Version: 6.00 Build 0)  -->
<svg version="1.1" id="Layer_1" xmlns="http://www.w3.org/2000/svg" xmlns:xlink="http://www.w3.org/1999/xlink" x="0px" y="0px"
	 viewBox="0 0 841.89 595.28" style="enable-background:new 0 0 841.89 595.28;" xml:space="preserve">
<style type="text/css">
	.st0{fill:#3E4143;}
	.st1{fill:#2779BE;}
	.st2{fill:#DF1F26;}
	.st3{fill:#1E3455;}
	.st4{fill-rule:evenodd;clip-rule:evenodd;fill:#2779BE;}
	.st5{fill-rule:evenodd;clip-rule:evenodd;fill:#DF1F26;}
	.st6{fill-rule:evenodd;clip-rule:evenodd;fill:#FFFFFF;}
	.st7{fill:#FFFFFF;}
	.st8{fill-rule:evenodd;clip-rule:evenodd;fill:#3E4143;}
</style>
<g>
	<g>
		<path class="st4" d="M323.45,423.91l9,33.58l41.63,0l8.84-33.01c13.9-3.05,26.96-8.33,38.79-15.44l30.35,17.52l12.16-12.16v-39.49
			c-18.21,20.99-43.28,35.52-69.86,43.21C371.2,424.82,347.17,426.4,323.45,423.91 M245.43,227.74
			c-27.57,85.72,28.06,165.05,125.48,172.98C263.13,376.88,244.66,242.63,301,179.45c-4.43,2.02-8.73,4.29-12.87,6.78l-30.35-17.52
			l-29.44,29.44L245.43,227.74z"/>
		<path class="st5" d="M462.08,368.97c-61.88,76-179.54,39.12-218.52-36.34c-10.96-21-15.67-43.7-14.79-66.5l-33.71,9.03l0,41.63
			l33.01,8.84c3.05,13.9,8.33,26.96,15.44,38.8l-17.52,30.35l29.44,29.44l29.6-17.09C365.03,431,430.99,409.85,462.08,368.97
			 M326.92,170.79c-36.69,21.19-52.14,57.69-48.59,125.47c0.74-56.62,46.87-102.29,103.66-102.29c33.49,0,61.12,9.9,80.08,34.54
			l2.15-47.64l-9.81-9.81l-29.6,17.09c-11.65-7.45-24.56-13.09-38.35-16.52l-9.07-33.84h-41.63L326.92,170.79z"/>
	</g>
	<g>
		<path class="st0" d="M359.59,274.87v5.18c0,12.59-5.71,18.07-18.07,18.07c-12.28,0-18.07-5.41-18.07-18.15V255.8
			c0-8.73,5.41-15.68,18.07-15.68c12.51,0,18.07,7.11,18.07,15.76v3.79h-13.36v-5.02c0-2.93-2.78-4.33-4.87-4.33
			c-2.24,0-4.56,1.24-4.56,4.09v27.65c0,4.17,1.78,5.87,4.56,5.87c2.86,0,4.87-1.55,4.87-5.72v-7.34H359.59z"/>
		<path class="st0" d="M386.86,296.81h-12.28v-44.95h-10.5v-10.5h32.59v10.5h-9.81V296.81z"/>
		<path class="st0" d="M415.28,296.81h-13.36v-55.46h19.39c7.72,0,16.22,2.78,16.22,16.91c0,13.67-8.34,16.91-16.22,16.91h-6.02
			V296.81z M415.28,265.22h2.39c3.32,0,6.49-1.62,6.49-7.11c0-5.48-2.86-6.8-6.72-6.8h-2.16V265.22z"/>
		<path class="st0" d="M480,255.8v24.87c0,11.04-5.48,17.45-18,17.45c-12.36,0-18-6.41-18-17.45v-24.95c0-8.73,5.48-15.6,18.07-15.6
			C474.67,240.12,480,247.15,480,255.8z M457.37,254.87v28.11c0,3.32,2.32,4.94,4.63,4.94c2.24,0,4.63-1.62,4.63-4.94v-28.11
			c0-3.17-2.39-4.56-4.63-4.56C459.69,250.31,457.37,251.7,457.37,254.87z"/>
		<path class="st0" d="M499.93,241.35v13.75c0,6.1-1.7,14.98-2.01,21.09H498l11.28-34.83h12.74v55.46h-12.74v-12.9
			c0-5.95,1.85-14.98,2.47-20.85h-0.08l-11.51,33.75h-12.98v-55.46H499.93z M498,228.15c0.39,3.55,4.02,3.94,6.87,3.94
			c3.24,0,5.56-0.46,6.57-3.94h4.94c0,6.64-5.72,9.96-11.82,9.96c-6.8,0-11.28-2.78-11.66-9.96H498z"/>
		<path class="st1" d="M570.28,241.35v10.5H552.6v44.95h-13.36v-55.46H570.28z"/>
		<path class="st1" d="M596.62,241.35l12.28,55.46h-13.13l-2.01-11.12h-10.19l-1.7,11.12h-13.28l12.05-55.46H596.62z M591.99,275.72
			l-3.55-24.41h-0.08l-3.48,24.41H591.99z"/>
		<path class="st1" d="M611.61,258.27c0-11.51,7.18-18.15,16.76-18.15c10.58,0,16.53,6.87,16.53,14.67c0,6.87-2.24,10.35-7.88,12.82
			h0.15c5.64,2.09,9.65,4.4,9.65,14.37c0,10.97-7.11,16.14-17.69,16.14c-8.26,0-17.53-3.63-17.53-17.92h12.28
			c0,6.18,1.78,7.96,4.71,7.96c3.48,0,4.87-1.78,4.87-7.96c0-5.17-1.62-7.26-5.87-7.26h-1.93v-9.96h3.17c1.93,0,4.02-2.16,4.02-6.1
			c0-4.17-1.31-6.8-4.48-6.8c-3.4,0-4.48,2.47-4.48,8.19H611.61z"/>
		<path class="st0" d="M332.89,313.93v10.19c0,4.52-1.26,11.11-1.49,15.63h0.06l8.36-25.82h9.45v41.11h-9.45v-9.56
			c0-4.41,1.37-11.11,1.83-15.46h-0.06l-8.53,25.02h-9.62v-41.11H332.89z"/>
		<path class="st0" d="M364.89,329.79h6.47v-15.86h9.9v41.11h-9.9v-17.46h-6.47v17.46h-9.9v-41.11h9.9V329.79z"/>
		<path class="st0" d="M412.12,313.93v16.37l6.93-16.37h10.76l-9.1,18.15l9.1,22.96h-10.42l-4.58-14.31l-2.69,4.75v9.56h-9.45v-9.56
			l-2.69-4.75l-4.58,14.31h-10.42l9.1-22.96l-9.1-18.15h10.76l6.93,16.37v-16.37H412.12z"/>
		<path class="st0" d="M442.97,313.93v10.19c0,4.52-1.26,11.11-1.49,15.63h0.06l8.36-25.82h9.45v41.11h-9.45v-9.56
			c0-4.41,1.37-11.11,1.83-15.46h-0.06l-8.53,25.02h-9.62v-41.11H442.97z"/>
		<path class="st0" d="M474.98,329.79h6.47v-15.86h9.9v41.11h-9.9v-17.46h-6.47v17.46h-9.9v-41.11h9.9V329.79z"/>
		<path class="st0" d="M506.52,313.93v10.19c0,4.52-1.26,11.11-1.49,15.63h0.06l8.36-25.82h9.45v41.11h-9.45v-9.56
			c0-4.41,1.37-11.11,1.83-15.46h-0.06l-8.53,25.02h-9.62v-41.11H506.52z"/>
		<path class="st0" d="M538.52,355.04h-9.9v-41.11h14.37c5.72,0,12.02,2.06,12.02,12.54c0,10.13-6.18,12.54-12.02,12.54h-4.47
			V355.04z M538.52,331.62h1.77c2.46,0,4.81-1.2,4.81-5.27s-2.12-5.04-4.98-5.04h-1.6V331.62z"/>
		<path class="st0" d="M569.72,313.93v10.19c0,4.52-1.26,11.11-1.49,15.63h0.06l8.36-25.82h9.45v41.11h-9.45v-9.56
			c0-4.41,1.37-11.11,1.83-15.46h-0.06l-8.53,25.02h-9.62v-41.11H569.72z"/>
		<path class="st0" d="M601.72,329.79h6.47v-15.86h9.9v41.11h-9.9v-17.46h-6.47v17.46h-9.9v-41.11h9.9V329.79z"/>
		<path class="st0" d="M646.83,313.93v7.79h-13.11v33.32h-9.9v-41.11H646.83z"/>
	</g>
</g>
</svg>
