<?xml version="1.0" encoding="utf-8"?>
<!-- Generator: Adobe Illustrator 21.0.0, SVG Export Plug-In . SVG Version: 6.00 Build 0)  -->
<svg version="1.1" id="Layer_1" xmlns="http://www.w3.org/2000/svg" xmlns:xlink="http://www.w3.org/1999/xlink" x="0px" y="0px"
	 viewBox="0 0 200 141.5" style="enable-background:new 0 0 200 141.5;" xml:space="preserve">
<style type="text/css">
	.st0{fill:#2779BE;}
	.st1{fill:#DF1F26;}
	.st2{fill:#3E4143;}
</style>
<g>
	<g>
		<path class="st0" d="M56.8,126.7l4,14.9h18.4l3.9-14.6c6.2-1.4,11.9-3.7,17.2-6.8l13.4,7.8l5.4-5.4V105
			c-8.1,9.3-19.2,15.7-30.9,19.1C78,127.1,67.3,127.8,56.8,126.7 M22.3,39.8c-12.2,37.9,12.4,73.1,55.6,76.6
			c-47.7-10.6-55.9-70-30.9-98c-2,0.9-3.9,1.9-5.7,3l-13.4-7.8l-13,13L22.3,39.8z"/>
		<path class="st1" d="M118.2,102.3C90.8,136,38.7,119.7,21.5,86.3c-4.9-9.3-6.9-19.3-6.5-29.4L0,60.8v18.4l14.6,3.9
			c1.4,6.2,3.7,11.9,6.8,17.2l-7.8,13.4l13,13l13.1-7.6C75.2,129.8,104.4,120.4,118.2,102.3 M58.4,14.6C42.1,24,35.3,40.1,36.9,70.2
			c0.3-25.1,20.7-45.3,45.9-45.3c14.8,0,27.1,4.4,35.5,15.3l1-21.1l-4.3-4.3l-13.1,7.6c-5.2-3.3-10.9-5.8-17-7.3l-4-15H62.3
			L58.4,14.6z"/>
	</g>
	<g>
		<path class="st2" d="M72.8,60.7V63c0,5.6-2.5,8-8,8c-5.4,0-8-2.4-8-8V52.2c0-3.9,2.4-6.9,8-6.9c5.5,0,8,3.1,8,7V54h-5.9v-2.2
			c0-1.3-1.2-1.9-2.2-1.9c-1,0-2,0.5-2,1.8v12.2c0,1.8,0.8,2.6,2,2.6c1.3,0,2.2-0.7,2.2-2.5v-3.2L72.8,60.7L72.8,60.7z"/>
		<path class="st2" d="M84.9,70.4h-5.4V50.5h-4.6v-4.6h14.4v4.6h-4.3V70.4z"/>
		<path class="st2" d="M97.5,70.4h-5.9V45.8h8.6c3.4,0,7.2,1.2,7.2,7.5c0,6.1-3.7,7.5-7.2,7.5h-2.7L97.5,70.4L97.5,70.4z M97.5,56.4
			h1.1c1.5,0,2.9-0.7,2.9-3.1c0-2.4-1.3-3-3-3h-1V56.4z"/>
		<path class="st2" d="M126.1,52.2v11c0,4.9-2.4,7.7-8,7.7c-5.5,0-8-2.8-8-7.7v-11c0-3.9,2.4-6.9,8-6.9
			C123.8,45.3,126.1,48.4,126.1,52.2z M116.1,51.8v12.4c0,1.5,1,2.2,2,2.2c1,0,2-0.7,2-2.2V51.8c0-1.4-1.1-2-2-2
			C117.2,49.8,116.1,50.4,116.1,51.8z"/>
		<path class="st2" d="M135,45.8v6.1c0,2.7-0.8,6.6-0.9,9.3h0l5-15.4h5.6v24.6h-5.6v-5.7c0-2.6,0.8-6.6,1.1-9.2h0l-5.1,14.9h-5.7
			V45.9L135,45.8L135,45.8z M134.1,40c0.2,1.6,1.8,1.7,3,1.7c1.4,0,2.5-0.2,2.9-1.7h2.2c0,2.9-2.5,4.4-5.2,4.4c-3,0-5-1.2-5.2-4.4
			H134.1z"/>
		<path class="st0" d="M166.1,45.8v4.6h-7.8v19.9h-5.9V45.8L166.1,45.8L166.1,45.8z"/>
		<path class="st0" d="M177.8,45.8l5.4,24.6h-5.8l-0.9-4.9H172l-0.8,4.9h-5.9l5.3-24.6H177.8z M175.7,61.1l-1.6-10.8h0l-1.5,10.8
			H175.7z"/>
		<path class="st0" d="M184.4,53.3c0-5.1,3.2-8,7.4-8c4.7,0,7.3,3,7.3,6.5c0,3-1,4.6-3.5,5.7h0.1c2.5,0.9,4.3,1.9,4.3,6.4
			c0,4.9-3.1,7.1-7.8,7.1c-3.7,0-7.8-1.6-7.8-7.9h5.4c0,2.7,0.8,3.5,2.1,3.5c1.5,0,2.2-0.8,2.2-3.5c0-2.3-0.7-3.2-2.6-3.2h-0.9v-4.4
			h1.4c0.9,0,1.8-1,1.8-2.7c0-1.8-0.6-3-2-3c-1.5,0-2,1.1-2,3.6L184.4,53.3L184.4,53.3z"/>
		<path class="st2" d="M61,78v4.5c0,2-0.6,4.9-0.7,6.9h0L64.1,78h4.2v18.2h-4.2v-4.2c0-2,0.6-4.9,0.8-6.8h0l-3.8,11.1h-4.3V78H61z"
			/>
		<path class="st2" d="M75.2,85H78v-7h4.4v18.2H78v-7.7h-2.9v7.7h-4.4V78h4.4V85z"/>
		<path class="st2" d="M96.1,78v7.2l3.1-7.2h4.8l-4,8l4,10.2h-4.6l-2-6.3l-1.2,2.1v4.2h-4.2v-4.2l-1.2-2.1l-2,6.3h-4.6l4-10.2l-4-8
			h4.8l3.1,7.2V78H96.1z"/>
		<path class="st2" d="M109.8,78v4.5c0,2-0.6,4.9-0.7,6.9h0l3.7-11.4h4.2v18.2h-4.2v-4.2c0-2,0.6-4.9,0.8-6.8h0l-3.8,11.1h-4.3V78
			H109.8z"/>
		<path class="st2" d="M123.9,85h2.9v-7h4.4v18.2h-4.4v-7.7h-2.9v7.7h-4.4V78h4.4V85z"/>
		<path class="st2" d="M137.9,78v4.5c0,2-0.6,4.9-0.7,6.9h0L141,78h4.2v18.2H141v-4.2c0-2,0.6-4.9,0.8-6.8h0L138,96.2h-4.3V78H137.9
			z"/>
		<path class="st2" d="M152.1,96.2h-4.4V78h6.4c2.5,0,5.3,0.9,5.3,5.6c0,4.5-2.7,5.6-5.3,5.6h-2V96.2z M152.1,85.8h0.8
			c1.1,0,2.1-0.5,2.1-2.3c0-1.8-0.9-2.2-2.2-2.2h-0.7L152.1,85.8L152.1,85.8z"/>
		<path class="st2" d="M165.9,78v4.5c0,2-0.6,4.9-0.7,6.9h0l3.7-11.4h4.2v18.2h-4.2v-4.2c0-2,0.6-4.9,0.8-6.8h0l-3.8,11.1h-4.3V78
			H165.9z"/>
		<path class="st2" d="M180,85h2.9v-7h4.4v18.2h-4.4v-7.7H180v7.7h-4.4V78h4.4V85z"/>
		<path class="st2" d="M200,78v3.4h-5.8v14.8h-4.4V78H200z"/>
	</g>
</g>
</svg>
